<svg xmlns="http://www.w3.org/2000/svg">
	<defs>
		<style>
			:root svg:not(:target) {
				display: none;
			}
		</style>
	</defs>
    <svg id="download" viewBox="0 0 24 24">
        <path d="M6 21H18M12 3V17M12 17L17 12M12 17L7 12" stroke-width="2.5" stroke-linecap="round" stroke-linejoin="round"></path>
    </svg>
    <svg id="open-full" viewBox="0 0 24 24">
        <path d="M5 12V6C5 5.44772 5.44772 5 6 5H18C18.5523 5 19 5.44772 19 6V18C19 18.5523 18.5523 19 18 19H12M8.11111 12H12M12 12V15.8889M12 12L5 19" stroke-linecap="round" stroke-width="2.5" fill="none" stroke-linejoin="round"></path>
    </svg>
	<svg id="telegram" viewBox="0 0 48 48">
		<path d="M5.83,23.616c12.568-5.529,28.832-12.27,31.077-13.203c5.889-2.442,7.696-1.974,6.795,3.434 c-0.647,3.887-2.514,16.756-4.002,24.766c-0.883,4.75-2.864,5.313-5.979,3.258c-1.498-0.989-9.059-5.989-10.7-7.163 c-1.498-1.07-3.564-2.357-0.973-4.892c0.922-0.903,6.966-6.674,11.675-11.166c0.617-0.59-0.158-1.559-0.87-1.086 c-6.347,4.209-15.147,10.051-16.267,10.812c-1.692,1.149-3.317,1.676-6.234,0.838c-2.204-0.633-4.357-1.388-5.195-1.676 C1.93,26.43,2.696,24.995,5.83,23.616z"></path>
	</svg>
	<svg id="github" viewBox="0 0 30 30">
		<path d="M15,3C8.373,3,3,8.373,3,15c0,5.623,3.872,10.328,9.092,11.63C12.036,26.468,12,26.28,12,26.047v-2.051 c-0.487,0-1.303,0-1.508,0c-0.821,0-1.551-0.353-1.905-1.009c-0.393-0.729-0.461-1.844-1.435-2.526 c-0.289-0.227-0.069-0.486,0.264-0.451c0.615,0.174,1.125,0.596,1.605,1.222c0.478,0.627,0.703,0.769,1.596,0.769 c0.433,0,1.081-0.025,1.691-0.121c0.328-0.833,0.895-1.6,1.588-1.962c-3.996-0.411-5.903-2.399-5.903-5.098 c0-1.162,0.495-2.286,1.336-3.233C9.053,10.647,8.706,8.73,9.435,8c1.798,0,2.885,1.166,3.146,1.481C13.477,9.174,14.461,9,15.495,9 c1.036,0,2.024,0.174,2.922,0.483C18.675,9.17,19.763,8,21.565,8c0.732,0.731,0.381,2.656,0.102,3.594 c0.836,0.945,1.328,2.066,1.328,3.226c0,2.697-1.904,4.684-5.894,5.097C18.199,20.49,19,22.1,19,23.313v2.734 c0,0.104-0.023,0.179-0.035,0.268C23.641,24.676,27,20.236,27,15C27,8.373,21.627,3,15,3z"></path>
	</svg>
	<svg id="gitlab" viewBox="0 0 380 380">
		<path class="cls-1" d="M282.83,170.73l-.27-.69-26.14-68.22a6.81,6.81,0,0,0-2.69-3.24,7,7,0,0,0-8,.43,7,7,0,0,0-2.32,3.52l-17.65,54H154.29l-17.65-54A6.86,6.86,0,0,0,134.32,99a7,7,0,0,0-8-.43,6.87,6.87,0,0,0-2.69,3.24L97.44,170l-.26.69a48.54,48.54,0,0,0,16.1,56.1l.09.07.24.17,39.82,29.82,19.7,14.91,12,9.06a8.07,8.07,0,0,0,9.76,0l12-9.06,19.7-14.91,40.06-30,.1-.08A48.56,48.56,0,0,0,282.83,170.73Z"/>
	</svg>
	<svg id="codepen" viewBox="0 0 50 50">
		<path d="M 25 4 L 4 17.34375 L 4 32.652344 L 25 46 L 46 32.65625 L 46 17.34375 Z M 25 29.183594 L 19.066406 25.070313 L 25 21.023438 L 30.933594 25.070313 Z M 27 17.605469 L 27 9.949219 L 40.429688 18.484375 L 34.410156 22.65625 Z M 23 17.605469 L 15.589844 22.65625 L 9.570313 18.484375 L 23 9.949219 Z M 12.09375 25.042969 L 8 27.832031 L 8 22.203125 Z M 15.570313 27.453125 L 23 32.605469 L 23 40.050781 L 9.589844 31.527344 Z M 27 32.605469 L 34.429688 27.453125 L 40.410156 31.527344 L 27 40.050781 Z M 37.90625 25.042969 L 42 22.203125 L 42 27.832031 Z"></path>
	</svg>
</svg>